<svg xmlns="http://www.w3.org/2000/svg" id="a" width="42.2661" height="37.4556" viewBox="0 0 42.2661 37.4556"><path d="M22.103,37.4556h-1.939c-.5449-2.1475-1.2881-4.1709-2.21-6.0127-1.8452-3.6904-4.3853-6.6318-7.5498-8.7422-2.002-1.334-4.2778-2.3457-6.7656-3.0068l-3.6387-.9668,3.6387-.9658c2.4868-.6606,4.7632-1.6719,6.7656-3.0068,3.1641-2.1099,5.7036-5.0508,7.5488-8.7417h0c.9214-1.8423,1.6646-3.8652,2.2095-6.0127h1.9385c.5459,2.1499,1.2891,4.1729,2.21,6.0127,1.8447,3.6904,4.3848,6.6318,7.5498,8.7417,2.0029,1.335,4.2793,2.3467,6.7656,3.0068l3.6396,.9658-3.6396,.9668c-2.4863,.6611-4.7627,1.6719-6.7656,3.0068-3.1641,2.1104-5.7041,5.0518-7.5488,8.7422-.9209,1.8428-1.665,3.8652-2.209,6.0127ZM7.0894,18.7275c1.5776,.6265,3.0581,1.3979,4.4243,2.3091,3.4575,2.3057,6.2266,5.5059,8.2295,9.5117,.5171,1.0342,.9814,2.1201,1.3901,3.249,.4082-1.1289,.873-2.2148,1.3896-3.249,2.002-4.0059,4.7705-7.2061,8.2285-9.5117,1.3672-.9111,2.8477-1.6831,4.4248-2.3091-1.5781-.626-3.0586-1.3979-4.4248-2.3091-3.458-2.3057-6.2266-5.5054-8.2295-9.5112-.5166-1.0332-.9814-2.1191-1.3901-3.249-.4082,1.1289-.8726,2.2148-1.3896,3.249h0c-2.0029,4.0059-4.771,7.2061-8.2285,9.5112-1.3667,.9111-2.8472,1.6831-4.4243,2.3091Z"></path></svg>